:SAMPLES-PER-SECOND 30
:FULLY-SPECIFIED
:DEGREES
429
root  -53.0014 34.9543 31.3053 -171.997 40.8588 178.635
RightUpLeg  -5.30964 -11.7336 1.38751
RightLeg  5.42238 -5.5378 -0.166045
RightFoot  -0.372012 -0.00164272 0.22766
RightToes  -15.3705 -0.0598547 -0.13788
Spine  -1.97923 -0.16628 0.265623
Spine1  -3.98074 -0.228605 1.27077
HEad  -50.3597 -21.4713 6.32951
LeftShoulder1  -1.94126e-019 -3.10601e-018 -2.51263e-017
LeftArm  -10.2586 21.5775 -81.9949
LeftForeArm  31.8953 -31.7693 -5.15484
LeftHand  -0.402798 -2.49599 6.14398
RightShoulder  -4.96962e-017 0 -2.36833e-017
RightArm  -13.3452 -17.1108 75.5633
RightForeArm  52.2287 32.5826 4.30867
RightHand  -0.38465 0.442511 -7.73598
LeftUpLeg  -8.58697 -5.70624 3.44307
LeftLeg  4.98234 10.4965 0.236272
LeftFoot  8.25958 -0.110162 1.68717
LeftToes  -24.0619 1.48321e-006 1.01846e-007
430
root  -53.0202 34.9598 31.3138 -171.792 42.0295 178.763
RightUpLeg  -5.49862 -11.0088 1.42388
RightLeg  5.25024 -5.10512 -0.137756
RightFoot  -0.132322 -0.0016352 0.200223
RightToes  -15.5198 -0.0596051 -0.139861
Spine  -1.9451 -0.255526 0.300595
Spine1  -3.91343 -0.403845 1.34079
HEad  -50.6155 -21.8607 6.72302
LeftShoulder1  -1.94126e-019 -3.10601e-018 -2.51263e-017
LeftArm  -10.1171 21.3243 -81.6342
LeftForeArm  32.4374 -31.2977 -5.01431
LeftHand  -0.366324 -2.67711 5.4934
RightShoulder  -4.96962e-017 0 -2.36833e-017
RightArm  -13.154 -17.6798 75.9159
RightForeArm  52.1708 33.2701 4.46846
RightHand  -0.396147 0.554275 -7.82535
LeftUpLeg  -8.62357 -4.76137 3.43039
LeftLeg  5.17988 10.7434 0.278599
LeftFoot  8.10952 -0.108767 1.69582
LeftToes  -24.0006 1.48321e-006 1.01846e-007
431
root  -53.0315 34.9593 31.3125 -171.585 43.3403 178.887
RightUpLeg  -5.82031 -10.0523 1.44535
RightLeg  5.35828 -4.78613 -0.138147
RightFoot  0.00490793 -0.00219176 0.18553
RightToes  -15.8017 -0.0593119 -0.142239
Spine  -1.92337 -0.274191 0.331358
Spine1  -3.87125 -0.440236 1.40078
HEad  -50.759 -22.3163 7.12172
LeftShoulder1  -1.94126e-019 -3.10601e-018 -2.51263e-017
LeftArm  -9.63241 21.1638 -81.3733
LeftForeArm  31.9461 -30.0726 -4.75497
LeftHand  -0.390359 -2.49684 5.96012
RightShoulder  -4.96962e-017 0 -2.36833e-017
RightArm  -13.3714 -18.343 76.2268
RightForeArm  51.9702 32.8396 4.37662
RightHand  -0.385814 0.509853 -7.67667
LeftUpLeg  -8.60789 -3.63025 3.39776
LeftLeg  5.34089 10.9243 0.313759
LeftFoot  7.9328 -0.105318 1.68821
LeftToes  -23.9267 1.48321e-006 1.01846e-007
432
root  -53.0564 34.9544 31.3149 -171.48 44.4033 178.98
RightUpLeg  -6.18901 -9.17253 1.43068
RightLeg  5.74747 -4.62021 -0.1647
RightFoot  -0.0504226 -0.00366915 0.188427
RightToes  -15.7214 -0.0589136 -0.143431
Spine  -1.88764 -0.405792 0.373848
Spine1  -3.80656 -0.698673 1.4818
HEad  -50.8583 -22.747 7.49863
LeftShoulder1  -1.94126e-019 -3.10601e-018 -2.51263e-017
LeftArm  -9.43407 21.1097 -81.1331
LeftForeArm  31.958 -28.2602 -4.35071
LeftHand  -0.395349 -2.41894 6.0882
RightShoulder  -4.96962e-017 0 -2.36833e-017
RightArm  -13.5669 -19.0668 76.4011
RightForeArm  52.2536 31.2168 3.99236
RightHand  -0.397634 0.497558 -7.92497
LeftUpLeg  -8.70975 -2.98563 3.3576
LeftLeg  5.78613 11.3336 0.412922
LeftFoot  7.65533 -0.102082 1.69124
LeftToes  -23.7436 1.48321e-006 1.01846e-007
433
root  -53.0844 34.948 31.323 -171.325 45.3573 179.094
RightUpLeg  -6.67034 -8.34894 1.44261
RightLeg  6.29064 -4.5043 -0.203255
RightFoot  -0.129273 -0.00497591 0.193067
RightToes  -15.8056 -0.0589692 -0.144208
Spine  -1.78198 -0.496793 0.407425
Spine1  -3.5991 -0.885063 1.54692
HEad  -51.3547 -23.4312 8.09792
LeftShoulder1  -1.94126e-019 -3.10601e-018 -2.51263e-017
LeftArm  -9.45274 20.9439 -80.9401
LeftForeArm  32.1734 -26.1916 -4.01087
LeftHand  -0.39507 -2.33939 6.14087
RightShoulder  -4.96962e-017 0 -2.36833e-017
RightArm  -14.8316 -19.5277 76.6371
RightForeArm  52.8355 28.4232 3.35969
RightHand  -0.412972 0.586829 -8.11269
LeftUpLeg  -8.931 -2.3414 3.3489
LeftLeg  6.35663 11.6157 0.53806
LeftFoot  7.35853 -0.0969405 1.669
LeftToes  -23.7608 1.48321e-006 1.01846e-007
434
root  -53.1002 34.9404 31.3156 -171.253 46.3875 179.148
RightUpLeg  -7.09251 -7.4294 1.38603
RightLeg  6.85535 -4.41033 -0.242523
RightFoot  -0.273042 -0.00633639 0.202406
RightToes  -15.7878 -0.0589666 -0.144633
Spine  -1.74084 -0.579513 0.414874
Spine1  -3.52029 -1.05877 1.56228
HEad  -51.4912 -23.9364 8.35515
LeftShoulder1  -1.94126e-019 -3.10601e-018 -2.51263e-017
LeftArm  -10.2764 21.0966 -80.8241
LeftForeArm  32.8585 -23.7884 -3.70406
LeftHand  -0.395989 -2.26589 6.20839
RightShoulder  -4.96962e-017 0 -2.36833e-017
RightArm  -16.2652 -19.9121 76.7366
RightForeArm  53.4501 24.3512 2.50192
RightHand  -0.432979 0.649474 -8.41881
LeftUpLeg  -9.04112 -1.32749 3.26283
LeftLeg  6.8598 11.6199 0.639786
LeftFoot  7.02483 -0.0882922 1.59992
LeftToes  -23.6487 1.48321e-006 1.01846e-007
435
root  -53.1134 34.9239 31.3092 -171.11 47.3825 179.211
RightUpLeg  -7.62497 -6.58009 1.34637
RightLeg  7.52507 -4.26789 -0.284697
RightFoot  -0.484481 -0.00765626 0.214843
RightToes  -15.7779 -0.0589263 -0.144767
Spine  -1.71033 -0.622625 0.432881
Spine1  -3.46214 -1.14946 1.59051
HEad  -51.6007 -24.2145 8.65619
LeftShoulder1  -1.94126e-019 -3.10601e-018 -2.51263e-017
LeftArm  -11.5008 21.3922 -80.806
LeftForeArm  33.7157 -21.4524 -3.44654
LeftHand  -0.402289 -2.20137 6.35284
RightShoulder  -4.96962e-017 0 -2.36833e-017
RightArm  -18.5287 -20.5908 76.673
RightForeArm  54.437 19.8363 1.59375
RightHand  -0.446362 0.621441 -8.71403
LeftUpLeg  -9.34589 -0.374933 3.19516
LeftLeg  7.63193 11.6548 0.798139
LeftFoot  6.5253 -0.0762853 1.4997
LeftToes  -23.4493 1.48321e-006 1.01846e-007
436
root  -53.1032 34.8686 31.2879 -170.862 48.1379 179.382
RightUpLeg  -8.32813 -6.19564 1.40156
RightLeg  8.62518 -3.90371 -0.335736
RightFoot  -0.968164 -0.00934075 0.235917
RightToes  -15.9801 -0.058869 -0.144672
Spine  -1.68553 -0.702882 0.547544
Spine1  -3.42504 -1.29589 1.7693
HEad  -52.0011 -24.5437 8.69228
LeftShoulder1  -1.94126e-019 -3.10601e-018 -2.51263e-017
LeftArm  -12.9692 21.9033 -80.9268
LeftForeArm  34.3966 -19.558 -3.25087
LeftHand  -0.40739 -2.06839 6.5357
RightShoulder  -4.96962e-017 0 -2.36833e-017
RightArm  -21.061 -21.4943 76.1747
RightForeArm  55.6525 16.4658 1.0313
RightHand  -0.462564 0.491066 -9.21531
LeftUpLeg  -10.0625 0.309314 3.24677
LeftLeg  9.21627 11.6504 1.11969
LeftFoot  5.56101 -0.0549649 1.29325
LeftToes  -23.4269 1.48321e-006 1.01846e-007
437
root  -53.0938 34.8085 31.2767 -170.556 48.8678 179.65
RightUpLeg  -8.96284 -5.61518 1.52095
RightLeg  9.62094 -3.73964 -0.387208
RightFoot  -1.4337 -0.0104983 0.252639
RightToes  -16.0513 -0.0588153 -0.144408
Spine  -1.70305 -0.756955 0.700071
Spine1  -3.46684 -1.42384 2.0319
HEad  -52.3223 -24.6704 8.74809
LeftShoulder1  -1.94126e-019 -3.10601e-018 -2.51263e-017
LeftArm  -14.2092 22.6095 -81.1337
LeftForeArm  34.6882 -18.0034 -3.065
LeftHand  -0.42224 -1.92614 6.88792
RightShoulder  -4.96962e-017 0 -2.36833e-017
RightArm  -25.3068 -22.8078 75.3226
RightForeArm  58.054 14.2153 1.20091
RightHand  -0.450256 0.269997 -9.30255
LeftUpLeg  -10.954 0.83373 3.37009
LeftLeg  11.1852 11.7956 1.54075
LeftFoot  4.46865 -0.0353669 1.068
LeftToes  -23.3719 1.48321e-006 1.01846e-007
438
root  -53.073 34.7463 31.264 -170.346 49.5268 179.985
RightUpLeg  -9.34457 -5.28174 1.68264
RightLeg  10.4447 -3.40234 -0.40183
RightFoot  -1.83104 -0.0103393 0.253476
RightToes  -16.1676 -0.0587856 -0.144038
Spine  -1.639 -0.870886 0.846651
Spine1  -3.34034 -1.70473 2.29642
HEad  -52.6097 -24.3741 8.8391
LeftShoulder1  -1.94126e-019 -3.10601e-018 -2.51263e-017
LeftArm  -15.272 23.3697 -81.261
LeftForeArm  34.8009 -17.1648 -2.9611
LeftHand  -0.419048 -1.73272 7.008
RightShoulder  -4.96962e-017 0 -2.36833e-017
RightArm  -29.6191 -23.9813 74.3057
RightForeArm  60.796 12.177 1.44829
RightHand  -0.449298 -0.0144378 -9.7471
LeftUpLeg  -11.8276 1.17323 3.56076
LeftLeg  13.4413 12.018 2.04925
LeftFoot  3.24167 -0.0183082 0.808558
LeftToes  -23.097 1.48321e-006 1.01846e-007
439
root  -53.0463 34.6885 31.2511 -170.119 50.1577 -179.56
RightUpLeg  -9.51991 -4.9335 1.91829
RightLeg  11.027 -3.11899 -0.400583
RightFoot  -2.12775 -0.00950451 0.247331
RightToes  -16.2348 -0.0588007 -0.143622
Spine  -1.62585 -0.935278 1.06222
Spine1  -3.31248 -1.90881 2.72524
HEad  -52.5865 -23.8199 8.63615
LeftShoulder1  -1.94126e-019 -3.10601e-018 -2.51263e-017
LeftArm  -16.0286 24.2494 -81.5934
LeftForeArm  34.819 -16.589 -2.87151
LeftHand  -0.419631 -1.75139 6.9826
RightShoulder  -4.96962e-017 0 -2.36833e-017
RightArm  -32.994 -25.3704 72.961
RightForeArm  63.1201 10.533 1.53523
RightHand  -0.445341 -0.256821 -10.0943
LeftUpLeg  -12.7207 1.56224 3.82682
LeftLeg  15.8953 12.0552 2.58619
LeftFoot  2.06835 -0.00687301 0.542294
LeftToes  -23.1996 1.48321e-006 1.01846e-007
440
root  -53.017 34.6211 31.2604 -169.475 50.5547 -178.53
RightUpLeg  -9.5193 -4.33179 2.56114
RightLeg  11.3355 -3.27352 -0.438406
RightFoot  -2.27313 -0.00906068 0.249195
RightToes  -16.2057 -0.0588811 -0.143223
Spine  -1.59578 -1.07381 1.40424
Spine1  -3.25982 -2.26183 3.413
HEad  -52.4094 -22.7657 8.55039
LeftShoulder1  -1.94126e-019 -3.10601e-018 -2.51263e-017
LeftArm  -16.7351 25.2639 -81.9972
LeftForeArm  34.7607 -16.9862 -2.93705
LeftHand  -0.418852 -1.73951 6.98191
RightShoulder  -4.96962e-017 0 -2.36833e-017
RightArm  -35.5449 -26.5115 71.5151
RightForeArm  65.5731 9.20878 1.48628
RightHand  -0.454941 -0.256621 -10.3112
LeftUpLeg  -14.0326 2.20788 4.53361
LeftLeg  19.1133 11.6191 3.17938
LeftFoot  0.667661 -0.000302545 0.213492
LeftToes  -23.4461 1.48321e-006 1.01846e-007
441
root  -52.9915 34.5404 31.2772 -168.709 50.5918 -177.312
RightUpLeg  -9.43839 -4.4128 3.35419
RightLeg  11.5613 -3.07166 -0.423714
RightFoot  -2.45371 -0.00741543 0.236065
RightToes  -16.2584 -0.0590473 -0.142901
Spine  -1.50067 -1.26826 1.77477
Spine1  -3.08853 -2.72748 4.16225
HEad  -52.2064 -21.4657 8.65866
LeftShoulder1  -1.94126e-019 -3.10601e-018 -2.51263e-017
LeftArm  -17.3021 26.047 -82.3679
LeftForeArm  34.6341 -18.0831 -3.1248
LeftHand  -0.418703 -1.86774 7.0135
RightShoulder  -4.96962e-017 0 -2.36833e-017
RightArm  -36.2806 -27.4601 70.1103
RightForeArm  66.6377 8.45764 1.40742
RightHand  -0.444591 -0.430072 -10.4123
LeftUpLeg  -15.7969 3.42783 5.402
LeftLeg  23.0255 10.2133 3.55852
LeftFoot  -0.736805 -0.0016182 -0.0901375
LeftToes  -23.506 1.48321e-006 1.01846e-007
